name C:/MyDriveSym/Projects/mobilecap/Data\Session20210816_0002\mocap\ForceDataProcessed\walking2_forces.mot
datacolumns 19
datarows 9
range 0.67950000 0.68350000
endheader 
time	R_ground_force_vx	R_ground_force_vy	R_ground_force_vz	R_ground_force_px	R_ground_force_py	R_ground_force_pz	R_ground_torque_x	R_ground_torque_y	R_ground_torque_z	L_ground_force_vx	L_ground_force_vy	L_ground_force_vz	L_ground_force_px	L_ground_force_py	L_ground_force_pz	L_ground_torque_x	L_ground_torque_y	L_ground_torque_z	
          0.67950000	         46.06190800	        146.48771100	          3.83223800	          0.32880300	          0.00600000	         -0.18794700	          0.00000000	         -0.01409700	          0.00000000	       -102.46482900	        555.15110400	          6.68972000	          0.85797100	          0.00600000	         -0.26196400	          0.00000000	         -0.83099600	          0.00000000	
          0.68000000	         45.56969900	        144.59699000	          3.84019600	          0.32905600	          0.00600000	         -0.18793800	          0.00000000	         -0.01258500	          0.00000000	       -102.46169300	        555.97951700	          6.81075900	          0.85810800	          0.00600000	         -0.26197800	          0.00000000	         -0.84267800	          0.00000000	
          0.68050000	         45.07921200	        142.71767200	          3.84751200	          0.32931100	          0.00600000	         -0.18792800	          0.00000000	         -0.01109800	          0.00000000	       -102.45450300	        556.79992700	          6.93130400	          0.85824400	          0.00600000	         -0.26199200	          0.00000000	         -0.85435900	          0.00000000	
          0.68100000	         44.59048200	        140.84981100	          3.85419100	          0.32957000	          0.00600000	         -0.18791800	          0.00000000	         -0.00963400	          0.00000000	       -102.44327600	        557.61235800	          7.05135100	          0.85838100	          0.00600000	         -0.26200600	          0.00000000	         -0.86603900	          0.00000000	
          0.68150000	         44.10354600	        138.99346400	          3.86024100	          0.32983100	          0.00600000	         -0.18790800	          0.00000000	         -0.00819400	          0.00000000	       -102.42803000	        558.41683100	          7.17089300	          0.85851700	          0.00600000	         -0.26202000	          0.00000000	         -0.87771700	          0.00000000	
          0.68200000	         43.61843600	        137.14868200	          3.86567000	          0.33009500	          0.00600000	         -0.18789800	          0.00000000	         -0.00677700	          0.00000000	       -102.40878200	        559.21337000	          7.28992600	          0.85865200	          0.00600000	         -0.26203400	          0.00000000	         -0.88939000	          0.00000000	
          0.68250000	         43.13518700	        135.31551900	          3.87048500	          0.33036100	          0.00600000	         -0.18788700	          0.00000000	         -0.00538500	          0.00000000	       -102.38555100	        560.00199500	          7.40844500	          0.85878700	          0.00600000	         -0.26204700	          0.00000000	         -0.90105900	          0.00000000	
          0.68300000	         42.65383200	        133.49402300	          3.87469400	          0.33063100	          0.00600000	         -0.18787600	          0.00000000	         -0.00401600	          0.00000000	       -102.35835500	        560.78273000	          7.52644400	          0.85892200	          0.00600000	         -0.26206100	          0.00000000	         -0.91272000	          0.00000000	
          0.68350000	         42.17440400	        131.68424200	          3.87830400	          0.33090300	          0.00600000	         -0.18786500	          0.00000000	         -0.00267000	          0.00000000	       -102.32721400	        561.55559600	          7.64391900	          0.85905700	          0.00600000	         -0.26207400	          0.00000000	         -0.92437400	          0.00000000	
